<svg xmlns="http://www.w3.org/2000/svg" xmlns:xlink="http://www.w3.org/1999/xlink" width="352" zoomAndPan="magnify" viewBox="0 0 264 131.999998" height="176" preserveAspectRatio="xMidYMid meet" version="1.0"><defs><g/></defs><g fill="#ffffff" fill-opacity="1"><g transform="translate(42.861367, 91.599597)"><g><path d="M 18.484375 -7.90625 C 20.085938 -6.070312 23.171875 -5.15625 27.734375 -5.15625 C 32.296875 -5.15625 35.632812 -5.585938 37.75 -6.453125 L 37.75 -25.375 L 28.640625 -25.796875 L 28.640625 -31.125 L 44.640625 -31.125 L 44.640625 -2.234375 C 40.273438 0.00390625 34.882812 1.125 28.46875 1.125 C 25.882812 1.125 23.5625 0.878906 21.5 0.390625 C 19.4375 -0.0976562 17.414062 -1.03125 15.4375 -2.40625 C 13.457031 -3.78125 11.804688 -5.613281 10.484375 -7.90625 C 7.617188 -12.957031 6.1875 -20.351562 6.1875 -30.09375 C 6.1875 -42.425781 8.367188 -50.769531 12.734375 -55.125 C 14.910156 -57.300781 17.316406 -58.804688 19.953125 -59.640625 C 22.585938 -60.472656 26.328125 -60.890625 31.171875 -60.890625 C 36.015625 -60.890625 40.390625 -60.398438 44.296875 -59.421875 L 43.4375 -53.234375 C 36.957031 -53.984375 32.164062 -54.359375 29.0625 -54.359375 C 23.382812 -54.359375 19.800781 -53.582031 18.3125 -52.03125 C 15.445312 -49.050781 13.988281 -41.796875 13.9375 -30.265625 C 13.988281 -18.691406 15.503906 -11.238281 18.484375 -7.90625 Z M 18.484375 -7.90625 "/></g></g></g><g fill="#ffffff" fill-opacity="1"><g transform="translate(95.488565, 91.599597)"><g><path d="M 15.90625 -33.375 L 16.34375 0 L 9.03125 0.09375 L 9.375 -27.34375 L 9.03125 -59.765625 L 16.34375 -59.765625 Z M 15.90625 -33.375 "/></g></g></g><g fill="#ffffff" fill-opacity="1"><g transform="translate(120.856247, 91.599597)"><g><path d="M 16.34375 0 L 9.03125 0 L 9.453125 -28.296875 L 9.203125 -59.765625 C 14.765625 -60.515625 21.097656 -60.890625 28.203125 -60.890625 C 40.929688 -60.890625 47.296875 -54.695312 47.296875 -42.3125 C 47.296875 -32.507812 43.054688 -26.601562 34.578125 -24.59375 L 34.578125 -24.25 L 48.078125 0 L 39.46875 0 L 27.171875 -23.734375 L 16.34375 -24.171875 Z M 16.25 -30.609375 C 21.644531 -30.035156 26.144531 -29.75 29.75 -29.75 C 33.363281 -29.75 35.914062 -30.707031 37.40625 -32.625 C 38.894531 -34.550781 39.640625 -37.804688 39.640625 -42.390625 C 39.640625 -48.929688 38.523438 -52.863281 36.296875 -54.1875 C 34.972656 -54.988281 32.519531 -55.390625 28.9375 -55.390625 C 25.351562 -55.390625 21.179688 -55.070312 16.421875 -54.4375 Z M 16.25 -30.609375 "/></g></g></g><g fill="#ffffff" fill-opacity="1"><g transform="translate(175.461258, 91.599597)"><g><path d="M 8.078125 0 L 0.4375 0 L 17.28125 -59.765625 L 26.3125 -59.765625 L 43.171875 0 L 35.4375 0 L 31.296875 -16 L 12.296875 -16 Z M 29.921875 -22.015625 L 22.015625 -53.921875 L 21.5 -53.921875 L 13.59375 -22.015625 Z M 29.921875 -22.015625 "/></g></g></g><g fill="#ffffff" fill-opacity="1"><g transform="translate(219.747213, 91.599597)"><g><path d="M 3.09375 -4.390625 L 5.671875 -10.234375 C 7.910156 -9.023438 10.675781 -7.929688 13.96875 -6.953125 C 17.269531 -5.984375 20.140625 -5.5 22.578125 -5.5 C 25.015625 -5.5 26.832031 -5.875 28.03125 -6.625 C 30.4375 -8.28125 31.640625 -11.203125 31.640625 -15.390625 C 31.640625 -18.316406 30.765625 -20.640625 29.015625 -22.359375 C 27.273438 -24.078125 25.082031 -25.492188 22.4375 -26.609375 C 19.800781 -27.734375 18.039062 -28.476562 17.15625 -28.84375 C 16.269531 -29.21875 14.992188 -29.847656 13.328125 -30.734375 C 11.671875 -31.628906 10.484375 -32.460938 9.765625 -33.234375 C 9.046875 -34.015625 8.253906 -34.976562 7.390625 -36.125 C 5.785156 -38.238281 4.984375 -41.414062 4.984375 -45.65625 C 4.984375 -49.90625 6.515625 -53.503906 9.578125 -56.453125 C 12.648438 -59.410156 17.023438 -60.890625 22.703125 -60.890625 C 27.117188 -60.890625 31.789062 -60.257812 36.71875 -59 L 35.515625 -52.796875 C 30.703125 -53.835938 26.503906 -54.359375 22.921875 -54.359375 C 19.335938 -54.359375 16.914062 -53.984375 15.65625 -53.234375 C 13.59375 -52.085938 12.5625 -49.625 12.5625 -45.84375 C 12.5625 -43.3125 13.390625 -41.101562 15.046875 -39.21875 C 16.253906 -37.894531 18.347656 -36.578125 21.328125 -35.265625 C 22.078125 -34.921875 23.4375 -34.347656 25.40625 -33.546875 C 27.382812 -32.742188 29.035156 -31.96875 30.359375 -31.21875 C 31.679688 -30.46875 33.085938 -29.4375 34.578125 -28.125 C 37.609375 -25.488281 39.125 -21.5625 39.125 -16.34375 C 39.125 -11.125 37.460938 -6.90625 34.140625 -3.6875 C 30.816406 -0.476562 26.488281 1.125 21.15625 1.125 C 18.34375 1.125 15.429688 0.664062 12.421875 -0.25 C 9.410156 -1.175781 7.101562 -2.097656 5.5 -3.015625 Z M 3.09375 -4.390625 "/></g></g></g><path stroke-linecap="butt" transform="matrix(0.75, -0.000000000000000186, 0.000000000000000186, 0.75, 56.441752, 96.272421)" fill="none" stroke-linejoin="miter" d="M -0.000460457 2.001356 L 258.228721 2.001356 " stroke="#ffffff" stroke-width="4" stroke-opacity="1" stroke-miterlimit="4"/><g fill="#ffffff" fill-opacity="1"><g transform="translate(0.748021, 46.240893)"><g><path d="M 7.1875 -1.34375 L 0.578125 -4.265625 L 0.578125 -5.203125 L 7.1875 -8.5 L 7.1875 -6.90625 L 2.640625 -4.796875 L 7.1875 -2.9375 Z M 7.1875 -1.34375 "/></g></g></g><g fill="#ffffff" fill-opacity="1"><g transform="translate(8.511663, 46.240893)"><g><path d="M 0.984375 -9.34375 C 0.984375 -10.007812 1.347656 -10.34375 2.078125 -10.34375 C 2.816406 -10.34375 3.1875 -10.007812 3.1875 -9.34375 C 3.1875 -9.03125 3.09375 -8.785156 2.90625 -8.609375 C 2.71875 -8.441406 2.441406 -8.359375 2.078125 -8.359375 C 1.347656 -8.359375 0.984375 -8.6875 0.984375 -9.34375 Z M 3.09375 0 L 1.0625 0 L 1.0625 -7.421875 L 3.09375 -7.421875 Z M 3.09375 0 "/></g></g></g><g fill="#ffffff" fill-opacity="1"><g transform="translate(12.662455, 46.240893)"><g><path d="M 7.921875 0 L 5.890625 0 L 5.890625 -4.34375 C 5.890625 -4.875 5.796875 -5.273438 5.609375 -5.546875 C 5.421875 -5.816406 5.117188 -5.953125 4.703125 -5.953125 C 4.128906 -5.953125 3.71875 -5.757812 3.46875 -5.375 C 3.21875 -5 3.09375 -4.375 3.09375 -3.5 L 3.09375 0 L 1.0625 0 L 1.0625 -7.421875 L 2.609375 -7.421875 L 2.890625 -6.484375 L 3 -6.484375 C 3.21875 -6.835938 3.523438 -7.101562 3.921875 -7.28125 C 4.328125 -7.46875 4.78125 -7.5625 5.28125 -7.5625 C 6.144531 -7.5625 6.800781 -7.328125 7.25 -6.859375 C 7.695312 -6.398438 7.921875 -5.726562 7.921875 -4.84375 Z M 7.921875 0 "/></g></g></g><g fill="#ffffff" fill-opacity="1"><g transform="translate(21.601601, 46.240893)"><g><path d="M 6.25 -2.203125 C 6.25 -1.441406 5.984375 -0.859375 5.453125 -0.453125 C 4.921875 -0.0546875 4.128906 0.140625 3.078125 0.140625 C 2.535156 0.140625 2.070312 0.0976562 1.6875 0.015625 C 1.3125 -0.0546875 0.957031 -0.160156 0.625 -0.296875 L 0.625 -1.96875 C 1 -1.789062 1.421875 -1.640625 1.890625 -1.515625 C 2.367188 -1.398438 2.785156 -1.34375 3.140625 -1.34375 C 3.878906 -1.34375 4.25 -1.554688 4.25 -1.984375 C 4.25 -2.140625 4.195312 -2.269531 4.09375 -2.375 C 4 -2.476562 3.832031 -2.59375 3.59375 -2.71875 C 3.351562 -2.84375 3.035156 -2.988281 2.640625 -3.15625 C 2.066406 -3.394531 1.644531 -3.613281 1.375 -3.8125 C 1.113281 -4.019531 0.921875 -4.253906 0.796875 -4.515625 C 0.671875 -4.785156 0.609375 -5.113281 0.609375 -5.5 C 0.609375 -6.15625 0.863281 -6.660156 1.375 -7.015625 C 1.882812 -7.378906 2.613281 -7.5625 3.5625 -7.5625 C 4.445312 -7.5625 5.316406 -7.367188 6.171875 -6.984375 L 5.5625 -5.515625 C 5.1875 -5.679688 4.835938 -5.8125 4.515625 -5.90625 C 4.191406 -6.007812 3.859375 -6.0625 3.515625 -6.0625 C 2.921875 -6.0625 2.625 -5.898438 2.625 -5.578125 C 2.625 -5.398438 2.71875 -5.242188 2.90625 -5.109375 C 3.101562 -4.972656 3.53125 -4.773438 4.1875 -4.515625 C 4.757812 -4.285156 5.179688 -4.066406 5.453125 -3.859375 C 5.722656 -3.660156 5.921875 -3.425781 6.046875 -3.15625 C 6.179688 -2.882812 6.25 -2.566406 6.25 -2.203125 Z M 6.25 -2.203125 "/></g></g></g><g fill="#ffffff" fill-opacity="1"><g transform="translate(28.362411, 46.240893)"><g><path d="M 4.140625 -6.125 C 3.710938 -6.125 3.375 -5.988281 3.125 -5.71875 C 2.882812 -5.445312 2.75 -5.0625 2.71875 -4.5625 L 5.5625 -4.5625 C 5.550781 -5.0625 5.414062 -5.445312 5.15625 -5.71875 C 4.90625 -5.988281 4.566406 -6.125 4.140625 -6.125 Z M 4.421875 0.140625 C 3.222656 0.140625 2.285156 -0.1875 1.609375 -0.84375 C 0.941406 -1.507812 0.609375 -2.445312 0.609375 -3.65625 C 0.609375 -4.90625 0.921875 -5.867188 1.546875 -6.546875 C 2.171875 -7.222656 3.03125 -7.5625 4.125 -7.5625 C 5.175781 -7.5625 5.992188 -7.265625 6.578125 -6.671875 C 7.160156 -6.078125 7.453125 -5.25 7.453125 -4.1875 L 7.453125 -3.203125 L 2.671875 -3.203125 C 2.691406 -2.628906 2.859375 -2.179688 3.171875 -1.859375 C 3.492188 -1.535156 3.941406 -1.375 4.515625 -1.375 C 4.960938 -1.375 5.382812 -1.421875 5.78125 -1.515625 C 6.1875 -1.609375 6.601562 -1.753906 7.03125 -1.953125 L 7.03125 -0.390625 C 6.675781 -0.210938 6.296875 -0.0820312 5.890625 0 C 5.492188 0.09375 5.003906 0.140625 4.421875 0.140625 Z M 4.421875 0.140625 "/></g></g></g><g fill="#ffffff" fill-opacity="1"><g transform="translate(36.398344, 46.240893)"><g><path d="M 5.203125 -7.5625 C 5.484375 -7.5625 5.710938 -7.546875 5.890625 -7.515625 L 5.734375 -5.609375 C 5.578125 -5.648438 5.378906 -5.671875 5.140625 -5.671875 C 4.492188 -5.671875 3.988281 -5.503906 3.625 -5.171875 C 3.269531 -4.835938 3.09375 -4.375 3.09375 -3.78125 L 3.09375 0 L 1.0625 0 L 1.0625 -7.421875 L 2.59375 -7.421875 L 2.890625 -6.1875 L 3 -6.1875 C 3.226562 -6.601562 3.535156 -6.9375 3.921875 -7.1875 C 4.316406 -7.4375 4.742188 -7.5625 5.203125 -7.5625 Z M 5.203125 -7.5625 "/></g></g></g><g fill="#ffffff" fill-opacity="1"><g transform="translate(42.574723, 46.240893)"><g><path d="M 4.1875 -1.484375 C 4.539062 -1.484375 4.96875 -1.5625 5.46875 -1.71875 L 5.46875 -0.203125 C 4.96875 0.0234375 4.347656 0.140625 3.609375 0.140625 C 2.796875 0.140625 2.203125 -0.0625 1.828125 -0.46875 C 1.460938 -0.882812 1.28125 -1.503906 1.28125 -2.328125 L 1.28125 -5.90625 L 0.3125 -5.90625 L 0.3125 -6.765625 L 1.421875 -7.4375 L 2.015625 -9.015625 L 3.3125 -9.015625 L 3.3125 -7.421875 L 5.390625 -7.421875 L 5.390625 -5.90625 L 3.3125 -5.90625 L 3.3125 -2.328125 C 3.3125 -2.035156 3.390625 -1.820312 3.546875 -1.6875 C 3.710938 -1.550781 3.925781 -1.484375 4.1875 -1.484375 Z M 4.1875 -1.484375 "/></g></g></g><g fill="#ffffff" fill-opacity="1"><g transform="translate(48.478809, 46.240893)"><g><path d="M 0.578125 -2.9375 L 5.125 -4.796875 L 0.578125 -6.90625 L 0.578125 -8.5 L 7.1875 -5.203125 L 7.1875 -4.265625 L 0.578125 -1.34375 Z M 0.578125 -2.9375 "/></g></g></g><g fill="#ffffff" fill-opacity="1"><g transform="translate(0.628362, 64.11007)"><g><path d="M 7.1875 -1.34375 L 0.578125 -4.265625 L 0.578125 -5.203125 L 7.1875 -8.5 L 7.1875 -6.90625 L 2.640625 -4.796875 L 7.1875 -2.9375 Z M 7.1875 -1.34375 "/></g></g></g><g fill="#ffffff" fill-opacity="1"><g transform="translate(8.392003, 64.11007)"><g><path d="M 4.90625 -5.453125 L 8.765625 -5.453125 L 8.765625 -0.421875 C 8.140625 -0.210938 7.550781 -0.0664062 7 0.015625 C 6.445312 0.0976562 5.882812 0.140625 5.3125 0.140625 C 3.84375 0.140625 2.722656 -0.289062 1.953125 -1.15625 C 1.179688 -2.019531 0.796875 -3.257812 0.796875 -4.875 C 0.796875 -6.4375 1.242188 -7.65625 2.140625 -8.53125 C 3.035156 -9.414062 4.28125 -9.859375 5.875 -9.859375 C 6.863281 -9.859375 7.820312 -9.65625 8.75 -9.25 L 8.0625 -7.609375 C 7.351562 -7.960938 6.617188 -8.140625 5.859375 -8.140625 C 4.960938 -8.140625 4.242188 -7.835938 3.703125 -7.234375 C 3.171875 -6.640625 2.90625 -5.835938 2.90625 -4.828125 C 2.90625 -3.773438 3.117188 -2.96875 3.546875 -2.40625 C 3.984375 -1.851562 4.613281 -1.578125 5.4375 -1.578125 C 5.875 -1.578125 6.3125 -1.625 6.75 -1.71875 L 6.75 -3.734375 L 4.90625 -3.734375 Z M 4.90625 -5.453125 "/></g></g></g><g fill="#ffffff" fill-opacity="1"><g transform="translate(18.241003, 64.11007)"><g><path d="M 1.21875 0 L 1.21875 -9.71875 L 3.28125 -9.71875 L 3.28125 0 Z M 1.21875 0 "/></g></g></g><g fill="#ffffff" fill-opacity="1"><g transform="translate(22.743782, 64.11007)"><g><path d="M 3.28125 -5.40625 L 3.953125 -5.40625 C 4.597656 -5.40625 5.078125 -5.507812 5.390625 -5.71875 C 5.703125 -5.9375 5.859375 -6.28125 5.859375 -6.75 C 5.859375 -7.207031 5.695312 -7.535156 5.375 -7.734375 C 5.0625 -7.929688 4.570312 -8.03125 3.90625 -8.03125 L 3.28125 -8.03125 Z M 3.28125 -3.734375 L 3.28125 0 L 1.21875 0 L 1.21875 -9.71875 L 4.046875 -9.71875 C 5.367188 -9.71875 6.347656 -9.472656 6.984375 -8.984375 C 7.617188 -8.503906 7.9375 -7.78125 7.9375 -6.8125 C 7.9375 -6.238281 7.773438 -5.726562 7.453125 -5.28125 C 7.140625 -4.832031 6.695312 -4.484375 6.125 -4.234375 C 7.582031 -2.046875 8.535156 -0.632812 8.984375 0 L 6.703125 0 L 4.375 -3.734375 Z M 3.28125 -3.734375 "/></g></g></g><g fill="#ffffff" fill-opacity="1"><g transform="translate(31.722775, 64.11007)"><g><path d="M 7.171875 0 L 6.46875 -2.3125 L 2.921875 -2.3125 L 2.21875 0 L 0 0 L 3.421875 -9.75 L 5.953125 -9.75 L 9.390625 0 Z M 5.96875 -4.046875 C 5.320312 -6.140625 4.957031 -7.320312 4.875 -7.59375 C 4.789062 -7.863281 4.734375 -8.082031 4.703125 -8.25 C 4.554688 -7.675781 4.132812 -6.273438 3.4375 -4.046875 Z M 5.96875 -4.046875 "/></g></g></g><g fill="#ffffff" fill-opacity="1"><g transform="translate(41.106886, 64.11007)"><g><path d="M 6.953125 -2.703125 C 6.953125 -1.816406 6.632812 -1.117188 6 -0.609375 C 5.375 -0.109375 4.5 0.140625 3.375 0.140625 C 2.34375 0.140625 1.425781 -0.0546875 0.625 -0.453125 L 0.625 -2.359375 C 1.28125 -2.066406 1.832031 -1.859375 2.28125 -1.734375 C 2.738281 -1.617188 3.15625 -1.5625 3.53125 -1.5625 C 3.988281 -1.5625 4.335938 -1.648438 4.578125 -1.828125 C 4.816406 -2.003906 4.9375 -2.257812 4.9375 -2.59375 C 4.9375 -2.789062 4.882812 -2.960938 4.78125 -3.109375 C 4.675781 -3.253906 4.519531 -3.394531 4.3125 -3.53125 C 4.101562 -3.664062 3.679688 -3.882812 3.046875 -4.1875 C 2.453125 -4.46875 2.003906 -4.734375 1.703125 -4.984375 C 1.410156 -5.242188 1.175781 -5.546875 1 -5.890625 C 0.820312 -6.234375 0.734375 -6.632812 0.734375 -7.09375 C 0.734375 -7.945312 1.023438 -8.617188 1.609375 -9.109375 C 2.191406 -9.609375 3 -9.859375 4.03125 -9.859375 C 4.53125 -9.859375 5.007812 -9.796875 5.46875 -9.671875 C 5.925781 -9.554688 6.40625 -9.390625 6.90625 -9.171875 L 6.25 -7.5625 C 5.726562 -7.78125 5.296875 -7.929688 4.953125 -8.015625 C 4.617188 -8.097656 4.285156 -8.140625 3.953125 -8.140625 C 3.566406 -8.140625 3.269531 -8.046875 3.0625 -7.859375 C 2.851562 -7.679688 2.75 -7.445312 2.75 -7.15625 C 2.75 -6.976562 2.789062 -6.820312 2.875 -6.6875 C 2.957031 -6.550781 3.09375 -6.414062 3.28125 -6.28125 C 3.46875 -6.15625 3.898438 -5.929688 4.578125 -5.609375 C 5.492188 -5.171875 6.117188 -4.734375 6.453125 -4.296875 C 6.785156 -3.859375 6.953125 -3.328125 6.953125 -2.703125 Z M 6.953125 -2.703125 "/></g></g></g><g fill="#ffffff" fill-opacity="1"><g transform="translate(48.598235, 64.11007)"><g><path d="M 0.578125 -2.9375 L 5.125 -4.796875 L 0.578125 -6.90625 L 0.578125 -8.5 L 7.1875 -5.203125 L 7.1875 -4.265625 L 0.578125 -1.34375 Z M 0.578125 -2.9375 "/></g></g></g><g fill="#ffffff" fill-opacity="1"><g transform="translate(5.135543, 81.979246)"><g><path d="M 7.1875 -1.34375 L 0.578125 -4.265625 L 0.578125 -5.203125 L 7.1875 -8.5 L 7.1875 -6.90625 L 2.640625 -4.796875 L 7.1875 -2.9375 Z M 7.1875 -1.34375 "/></g></g></g><g fill="#ffffff" fill-opacity="1"><g transform="translate(12.899184, 81.979246)"><g><path d="M 7.921875 0 L 5.890625 0 L 5.890625 -4.34375 C 5.890625 -5.414062 5.492188 -5.953125 4.703125 -5.953125 C 4.128906 -5.953125 3.71875 -5.757812 3.46875 -5.375 C 3.21875 -4.988281 3.09375 -4.363281 3.09375 -3.5 L 3.09375 0 L 1.0625 0 L 1.0625 -10.34375 L 3.09375 -10.34375 L 3.09375 -8.234375 C 3.09375 -8.066406 3.078125 -7.679688 3.046875 -7.078125 L 3 -6.484375 L 3.109375 -6.484375 C 3.554688 -7.203125 4.269531 -7.5625 5.25 -7.5625 C 6.125 -7.5625 6.785156 -7.328125 7.234375 -6.859375 C 7.691406 -6.390625 7.921875 -5.71875 7.921875 -4.84375 Z M 7.921875 0 "/></g></g></g><g fill="#ffffff" fill-opacity="1"><g transform="translate(21.83833, 81.979246)"><g><path d="M 4.140625 -6.125 C 3.710938 -6.125 3.375 -5.988281 3.125 -5.71875 C 2.882812 -5.445312 2.75 -5.0625 2.71875 -4.5625 L 5.5625 -4.5625 C 5.550781 -5.0625 5.414062 -5.445312 5.15625 -5.71875 C 4.90625 -5.988281 4.566406 -6.125 4.140625 -6.125 Z M 4.421875 0.140625 C 3.222656 0.140625 2.285156 -0.1875 1.609375 -0.84375 C 0.941406 -1.507812 0.609375 -2.445312 0.609375 -3.65625 C 0.609375 -4.90625 0.921875 -5.867188 1.546875 -6.546875 C 2.171875 -7.222656 3.03125 -7.5625 4.125 -7.5625 C 5.175781 -7.5625 5.992188 -7.265625 6.578125 -6.671875 C 7.160156 -6.078125 7.453125 -5.25 7.453125 -4.1875 L 7.453125 -3.203125 L 2.671875 -3.203125 C 2.691406 -2.628906 2.859375 -2.179688 3.171875 -1.859375 C 3.492188 -1.535156 3.941406 -1.375 4.515625 -1.375 C 4.960938 -1.375 5.382812 -1.421875 5.78125 -1.515625 C 6.1875 -1.609375 6.601562 -1.753906 7.03125 -1.953125 L 7.03125 -0.390625 C 6.675781 -0.210938 6.296875 -0.0820312 5.890625 0 C 5.492188 0.09375 5.003906 0.140625 4.421875 0.140625 Z M 4.421875 0.140625 "/></g></g></g><g fill="#ffffff" fill-opacity="1"><g transform="translate(29.874263, 81.979246)"><g><path d="M 5.203125 -7.5625 C 5.484375 -7.5625 5.710938 -7.546875 5.890625 -7.515625 L 5.734375 -5.609375 C 5.578125 -5.648438 5.378906 -5.671875 5.140625 -5.671875 C 4.492188 -5.671875 3.988281 -5.503906 3.625 -5.171875 C 3.269531 -4.835938 3.09375 -4.375 3.09375 -3.78125 L 3.09375 0 L 1.0625 0 L 1.0625 -7.421875 L 2.59375 -7.421875 L 2.890625 -6.1875 L 3 -6.1875 C 3.226562 -6.601562 3.535156 -6.9375 3.921875 -7.1875 C 4.316406 -7.4375 4.742188 -7.5625 5.203125 -7.5625 Z M 5.203125 -7.5625 "/></g></g></g><g fill="#ffffff" fill-opacity="1"><g transform="translate(36.050642, 81.979246)"><g><path d="M 4.140625 -6.125 C 3.710938 -6.125 3.375 -5.988281 3.125 -5.71875 C 2.882812 -5.445312 2.75 -5.0625 2.71875 -4.5625 L 5.5625 -4.5625 C 5.550781 -5.0625 5.414062 -5.445312 5.15625 -5.71875 C 4.90625 -5.988281 4.566406 -6.125 4.140625 -6.125 Z M 4.421875 0.140625 C 3.222656 0.140625 2.285156 -0.1875 1.609375 -0.84375 C 0.941406 -1.507812 0.609375 -2.445312 0.609375 -3.65625 C 0.609375 -4.90625 0.921875 -5.867188 1.546875 -6.546875 C 2.171875 -7.222656 3.03125 -7.5625 4.125 -7.5625 C 5.175781 -7.5625 5.992188 -7.265625 6.578125 -6.671875 C 7.160156 -6.078125 7.453125 -5.25 7.453125 -4.1875 L 7.453125 -3.203125 L 2.671875 -3.203125 C 2.691406 -2.628906 2.859375 -2.179688 3.171875 -1.859375 C 3.492188 -1.535156 3.941406 -1.375 4.515625 -1.375 C 4.960938 -1.375 5.382812 -1.421875 5.78125 -1.515625 C 6.1875 -1.609375 6.601562 -1.753906 7.03125 -1.953125 L 7.03125 -0.390625 C 6.675781 -0.210938 6.296875 -0.0820312 5.890625 0 C 5.492188 0.09375 5.003906 0.140625 4.421875 0.140625 Z M 4.421875 0.140625 "/></g></g></g><g fill="#ffffff" fill-opacity="1"><g transform="translate(44.086575, 81.979246)"><g><path d="M 0.578125 -2.9375 L 5.125 -4.796875 L 0.578125 -6.90625 L 0.578125 -8.5 L 7.1875 -5.203125 L 7.1875 -4.265625 L 0.578125 -1.34375 Z M 0.578125 -2.9375 "/></g></g></g></svg>